<?xml version="1.0" encoding="iso-8859-1"?>
<!-- Generator: Adobe Illustrator 25.2.3, SVG Export Plug-In . SVG Version: 6.00 Build 0)  -->
<svg version="1.1" xmlns="http://www.w3.org/2000/svg" xmlns:xlink="http://www.w3.org/1999/xlink" x="0px" y="0px"
	 viewBox="0 0 100 100" style="enable-background:new 0 0 100 100;" xml:space="preserve">
<g id="Layer_1">
</g>
<g id="Layer_2">
	<g>
		<path style="fill:#7986CB;" d="M22.566,52.969c0.021,0.188,0.059,0.362,0.083,0.547C22.624,53.333,22.585,53.155,22.566,52.969z"
			/>
		<path style="fill:#75849D;" d="M50,22.4l-5.679,24.833L50,50l5.786-2.767L50,22.4z"/>
		<path style="fill:#B1BDD0;" d="M50,22.4l-5.679,24.833L50,50V22.4z"/>
		<path style="fill:#B1BDD0;" d="M25.85,63.8L50,56.36V50l-5.679-2.767L25.85,63.8z"/>
		<path style="fill:#7C8A9E;" d="M25.85,63.8L50,56.36V50L25.85,63.8z"/>
		<path style="fill:#B1BDD0;" d="M74.15,63.909L50,56.36V50l5.786-2.767L74.15,63.909z"/>
		<path style="fill:#75849D;" d="M74.15,63.909L50,56.36V50L74.15,63.909z"/>
	</g>
	<path style="fill:#B1BDD0;" d="M49.75,15c-19.33,0-35,15.67-35,35s15.67,35,35,35s35-15.67,35-35S69.08,15,49.75,15z M49.75,78.25
		C34.148,78.25,21.5,65.602,21.5,50s12.648-28.25,28.25-28.25S78,34.398,78,50S65.352,78.25,49.75,78.25z"/>
	<circle style="fill:none;stroke:#1F212B;stroke-width:2;stroke-miterlimit:10;" cx="50" cy="50" r="35"/>
	<circle style="fill:none;stroke:#1F212B;stroke-width:2;stroke-miterlimit:10;" cx="50" cy="50" r="28"/>
	<path style="fill:none;stroke:#1F212B;stroke-linecap:round;stroke-linejoin:round;stroke-miterlimit:10;" d="M50,22.4
		l-5.679,24.833L50,50l5.786-2.767L50,22.4z"/>
	<path style="fill:none;stroke:#1F212B;stroke-linecap:round;stroke-linejoin:round;stroke-miterlimit:10;" d="M25.85,63.8L50,56.36
		V50l-5.679-2.767L25.85,63.8z"/>
	<path style="fill:none;stroke:#1F212B;stroke-linecap:round;stroke-linejoin:round;stroke-miterlimit:10;" d="M74.15,63.909
		L50,56.36V50l5.786-2.767L74.15,63.909z"/>
	
		<line style="fill:none;stroke:#1F212B;stroke-linecap:round;stroke-linejoin:round;stroke-miterlimit:10;" x1="50" y1="36" x2="50" y2="22.4"/>
	<polyline style="fill:none;stroke:#1F212B;stroke-linecap:round;stroke-linejoin:round;stroke-miterlimit:10;" points="
		46.938,51.75 50,50 50,41.5 	"/>
	
		<line style="fill:none;stroke:#1F212B;stroke-linecap:round;stroke-linejoin:round;stroke-miterlimit:10;" x1="25.85" y1="63.8" x2="43" y2="54"/>
	
		<line style="fill:none;stroke:#1F212B;stroke-linecap:round;stroke-linejoin:round;stroke-miterlimit:10;" x1="63.25" y1="57.694" x2="55.5" y2="53.194"/>
	
		<line style="fill:none;stroke:#1F212B;stroke-linecap:round;stroke-linejoin:round;stroke-miterlimit:10;" x1="73.25" y1="63.5" x2="66.5" y2="59.581"/>
</g>
</svg>