<svg xmlns="http://www.w3.org/2000/svg" width="762.086" height="251.894" viewBox="0 0 201.63525 66.646955"><path d="M96.256 23.333h-15.23a.274.274 0 0 0-.212.114.225.225 0 0 0 0 .244l2.091 4.23c.042.09.13.147.22.147h13.139c3.164 0 5.751 2.57 5.751 5.743a5.762 5.762 0 0 1-5.751 5.752H82.287a.253.253 0 0 0-.244.252v16.23c0 .139.114.245.244.245h4.238a.24.24 0 0 0 .244-.244V44.29h9.495c5.776 0 10.478-4.694 10.478-10.479 0-5.776-4.702-10.478-10.478-10.478M164.13 39.742a.257.257 0 0 0-.228-.146h-13.13a5.762 5.762 0 0 1-5.752-5.752 5.757 5.757 0 0 1 5.752-5.752h13.139c.097 0 .179-.059.227-.138l2.083-4.23a.286.286 0 0 0 0-.244.266.266 0 0 0-.211-.114h-15.23c-5.776 0-10.479 4.702-10.479 10.479 0 5.776 4.703 10.478 10.479 10.478h15.23a.247.247 0 0 0 .252-.244.306.306 0 0 0-.042-.146zM66.919 23.366h-15.23c-.09 0-.171.04-.212.113a.264.264 0 0 0-.02.244l2.09 4.23c.04.082.13.139.22.139h13.147c3.165 0 5.744 2.579 5.744 5.752 0 3.165-2.579 5.752-5.744 5.752h-13.13a.253.253 0 0 0-.228.146l-2.083 4.19a.286.286 0 0 0-.05.146c0 .13.114.244.252.244h15.238c5.776 0 10.47-4.702 10.47-10.478 0-5.777-4.694-10.48-10.47-10.48M134.973 39.93a.255.255 0 0 0-.228-.155h-13.123c-2.376 0-4.417-1.546-5.296-3.661h17.743a.24.24 0 0 0 .245-.244v-4.052a.245.245 0 0 0-.245-.243h-17.743c.87-2.116 2.912-3.67 5.296-3.67h13.13c.099 0 .18-.047.229-.138l2.09-4.043c.034-.081.034-.17-.02-.244a.25.25 0 0 0-.204-.114h-15.23c-5.776 0-10.479 4.703-10.479 10.479 0 5.776 4.703 10.479 10.479 10.479h15.23a.245.245 0 0 0 .244-.244c0-.06 0-.106-.042-.147zM191.157 39.596h-11.43c-3.174 0-5.744-2.587-5.744-5.752a5.75 5.75 0 0 1 5.743-5.752h11.43a5.757 5.757 0 0 1 5.752 5.752 5.762 5.762 0 0 1-5.751 5.752m0-16.23h-11.43c-5.777 0-10.48 4.702-10.48 10.478s4.703 10.479 10.48 10.479h11.43c5.776 0 10.478-4.703 10.478-10.479 0-5.776-4.702-10.478-10.478-10.478" style="fill:#13336b"/><path d="m27.103 40.654 2.547-4.882c.137-.26.154-.545.048-.764a.68.68 0 0 0-.619-.35H12.076c-3.32 0-5.345-2.702-4.515-6.02.83-3.32 3.474-6.013 7.517-6.013l17.963-.006c.39 0 .806-.26 1.01-.643l11.023-20.86c.228-.439.123-.886-.26-1.057a.795.795 0 0 0-.31-.059c-.333 0-.675.187-.903.472l-15.01 15.506H16.738c-6.98 0-13.985 2.856-16.052 11.992-1.578 7.021 2.758 13.326 9.73 13.326h15.67c.39 0 .813-.26 1.016-.643" style="fill:#62c4d8"/><path d="m18.097 25.993-2.562 4.882c-.13.26-.146.545-.033.764.106.22.341.35.61.35h17.003c3.32 0 5.345 2.701 4.515 6.02-.83 3.312-3.473 6.013-7.517 6.013l-17.963.006c-.39 0-.806.26-1.009.643L.117 65.53c-.228.43-.114.886.26 1.057a.795.795 0 0 0 .31.059c.333 0 .675-.179.903-.48L16.6 50.661h11.853c6.98 0 13.985-2.848 16.052-11.992 1.578-7.013-2.75-13.318-9.73-13.318h-15.67c-.39 0-.813.26-1.008.642" style="fill:#62c4d8"/></svg>