<svg xmlns="http://www.w3.org/2000/svg" width="1000.000000pt" height="562.000000pt" version="1.0" viewBox="0 0 1000.000000 562.000000"><path fill="#44207a" d="M416 8c-18.5 4-49.2 15-67 24l-6 3 .6-3.9c.5-3.4.3-4.1-1.7-5.2-11.2-6.2-64.8 11.5-109.8 36.2-7 3.9-9.2 4.7-8.6 3.3 5.5-13.2-7.2-12.4-37 2.1C132.9 93.7 89.8 130.8 67.4 170c-6.4 11.1-12.9 27.3-15.1 37.4-3.5 16-1.4 43.6 4.6 59.6 5.5 14.6 20 35.8 35.6 51.9 32.4 33.4 74.2 55.3 142.4 74.6 34.8 9.8 99.5 24.8 155.6 36.1 31.9 6.3 34.5 7.2 34.5 10.9 0 .7-5.1 5.4-11.2 10.6-22.6 18.8-25.8 23-25.8 33.2 0 11.2 9.9 20.7 30.5 29.2 16.6 6.8 27.2 13.4 42.9 26.9 14.3 12.2 24.6 16.1 42.6 15.9 16.2-.1 29.9-5.4 41.1-15.8 8.8-8.2 21.3-16.6 32.8-22.1 6.4-3.1 14.9-7.2 18.9-9.1 13.4-6.5 21.4-16 21.4-25.2 0-9.9-3.4-14.3-23.4-30.8-13-10.6-14.9-13.3-11.4-16.2.7-.6 16.6-4.2 35.2-8 120.3-24.6 187.1-43 228.7-63 41.5-20.1 75.9-51.2 96.3-87.1 8.9-15.8 12-30.8 11.1-54.3-.5-15.8-2.3-23.7-8.2-37.9-8.6-20.6-21.2-38.5-41-58.4-24.4-24.5-49.8-42.5-84.7-60-28.9-14.5-45.7-16.3-39.1-4.4l2.1 4-4.1-2.5C743.2 43.3 680.8 21 666 25c-4.3 1.2-5.6 3.4-4.1 7.2.9 2.5.5 2.3-11.7-3C625.3 18.4 586.8 7 575.3 7c-2.2 0-4.8.6-5.8 1.4-1.8 1.3-1.8 1.4.1 4.7 1.1 1.9 4.7 5.2 8.2 7.4 3.4 2.2 12.8 8.3 20.9 13.5 28.2 18.1 50 35.6 72.3 58 36.4 36.4 60 75.3 69.6 114.5 3.2 13.2 3.9 23.6 2.5 37-3.6 33.9-16.8 63.8-39.6 90-10.6 12.2-29 25.9-45.5 34.1-21.2 10.6-68.2 23.8-108 30.4-15.9 2.6-20.2 4.2-24.3 9.1-4.4 5-6 10.3-4.7 15.1 1.2 4.1 5.1 8 20 19.5 13.1 10.1 15.2 12.4 18.6 19.7 3.6 7.9 3.2 17.6-1.1 25.5-5.8 10.6-19.7 20.4-35 24.7-3.5 1-11.4 1.8-19.1 2.1-15.4.6-25-1.3-37.4-7.4-8.3-4.1-17.5-12.4-20.8-18.9-6.4-12.5-3.8-28 6.3-37.5 2.2-2.1 9.8-8.4 16.9-14 15-11.9 16.3-13.9 14.2-21.9-1.5-5.9-5.9-11-11.4-13.3-2.1-.8-10.8-2.7-19.5-4.2-26-4.4-74.9-17-91.5-23.6-21.7-8.7-37.4-19-54.3-35.8-28.4-28.4-44.1-63.3-45.6-101.6-.7-15.9 1-26.7 6.9-44.4 19.7-59.2 72-117.5 147.7-164.6 18-11.2 23.2-16.8 18.2-19.5-2.8-1.4-8.3-1.1-18.1 1zm-93 36.1c-.8.5-8.5 4.9-17.1 9.8C216.5 104.7 165 168.7 165 229c0 28.7 17.7 63 47.1 91.5 23.6 22.8 55.4 43 89.9 57 11.3 4.6 14.9 6.5 10 5-17.5-5-65.8-27.5-84.7-39.3-41.9-26.2-66.2-54.7-75-88-2.2-8.3-2.6-11.9-2.7-24.7 0-17.6 1.2-25.6 6.5-41.8 7.7-23.7 20.4-43.8 40.9-65 28.7-29.7 66.3-54.4 115.5-75.9 10.8-4.7 13.5-5.6 10.5-3.7zm373.3 5.1C724 61 755.4 78.9 777.7 95.6c14.2 10.6 40.4 36.5 48.8 48.2 15.7 21.7 24.9 43.5 28.6 67.3.7 4.6.9 13.5.6 22.5-.5 18.2-2.5 26.3-10.2 41.9-15.7 31.9-48.3 60.1-98 84.5-15.6 7.6-52.9 23-55.7 23-.7-.1 3.7-2.1 9.7-4.5C776.9 348 828.5 297 839.6 242c4.9-24.7-4.9-59.7-25.2-89.7-9.2-13.6-17-22.7-32.5-37.9C758.7 91.8 732.3 72.3 700 54c-22.7-12.8-22.9-13-3.7-4.8zM222 67.4c0 .2-3.3 2.3-7.2 4.6-38.9 23-75.5 55.9-96 86.5-15.5 23-24.8 50.1-24.8 71.4.1 11.8 5.3 30.8 12.5 45.2 8.7 17.2 26.8 39 44.1 52.9 15.8 12.6 38.3 25.5 59.6 34.1 5.9 2.3 10.6 4.4 10.4 4.6-.2.2-5-1.3-10.7-3.3C141.1 339.5 96.5 300.6 84 253.5c-11.1-42.2 2.3-80.3 42.4-120 22.2-21.9 48.7-41.2 82.6-59.7 12.8-7 13-7.1 13-6.4zm576.2 7.2c39.3 21.4 73.7 47.8 94.4 72.7 22.6 27 32.4 50.4 32.4 77.7 0 43.2-22.6 79.5-68 109.2-13.1 8.7-36.4 20.1-54 26.6-17.5 6.6-22.5 7.6-8.6 1.8 21.3-8.9 40.7-19.6 56.4-31.3 10.4-7.7 29.4-27 36.5-37 11.8-16.7 20.1-36 23.3-54.6 2.6-15.1-.6-34.2-9.3-54.7-16.1-37.9-57-80.5-105.5-110-8.1-4.9-9.6-6-8.3-6 .2 0 5.1 2.5 10.7 5.6z"/></svg>